<svg width="100" height="45" xmlns="http://www.w3.org/2000/svg">
 <!-- Created with Method Draw - http://github.com/duopixel/Method-Draw/ -->

 <g>
  <title>Layer 1</title>
  <g id="svg_14">
   <g transform="matrix(0.213664, 0, 0, 0.200471, -520.876, -213.946)" id="svg_5">
    <path id="svg_6" d="m2582.589111,1131.696411l0,0l0,0l0,0l0,0c-2.4729,-1.861084 -5.033936,-3.52002 -7.663818,-4.983032c-1.904053,-1.05896 -4.295166,-0.563965 -5.604004,1.177002l-16.492188,21.911987l-1.175781,1.562988c-1.786133,2.373047 -4.638184,3.665039 -7.605225,3.529053c-1.081787,-0.049072 -2.163818,-0.039063 -3.241943,0.028931c-8.289063,0.525024 -16.307861,4.525024 -21.693848,11.68103c-4.330078,5.753052 -6.229004,12.57605 -5.87915,19.244995c0.062988,1.20105 0.75708,2.297974 1.851074,2.796021c2.27002,1.031982 4.01709,3.136963 4.453857,5.829956c0.618164,3.809082 -1.721924,7.551025 -5.417969,8.659058c-4.356934,1.305908 -8.832031,-1.363037 -9.813965,-5.723999c-0.531982,-2.362061 0.079102,-4.71106 1.463135,-6.47998c0.767822,-0.981079 1.153809,-2.203003 1.043945,-3.44397c-0.758057,-8.552002 1.52002,-17.4021 7.090088,-24.802002c7.025879,-9.334106 17.716797,-14.274048 28.562012,-14.337036c2.089844,-0.012085 4.051758,-1.011108 5.308838,-2.68103l15.187988,-20.177979c1.188965,-1.578979 0.421143,-3.848022 -1.47583,-4.405029c-25.430176,-7.459961 -53.905029,0.93396 -70.960205,23.145996c-22.098877,28.781006 -16.729004,70.279053 11.987061,92.462036c2.687012,2.075928 5.481934,3.908936 8.360107,5.507935c1.892822,1.052002 4.273926,0.537109 5.576904,-1.192993l16.491943,-21.911011l1.176025,-1.562988c1.786133,-2.372925 4.637939,-3.665039 7.60498,-3.528931c1.082031,0.04895 2.164063,0.03894 3.242188,-0.029053c8.288818,-0.525024 16.307861,-4.525024 21.693848,-11.68103c4.330078,-5.75293 6.229004,-12.575928 5.878906,-19.244995c-0.062988,-1.200928 -0.756836,-2.297974 -1.85083,-2.796021c-2.27002,-1.031982 -4.01709,-3.136963 -4.454102,-5.829956c-0.61792,-3.80896 1.721924,-7.551025 5.417969,-8.657959c4.357178,-1.30603 8.832031,1.362915 9.814209,5.723999c0.531738,2.361938 -0.079102,4.710938 -1.463135,6.47998c-0.768066,0.980957 -1.154053,2.203003 -1.043945,3.44397c0.758057,8.552002 -1.52002,17.401978 -7.090088,24.802002c-7.025879,9.333984 -17.717041,14.274048 -28.562012,14.337036c-2.089844,0.011963 -4.052002,1.010986 -5.308838,2.68103l-15.187012,20.177002c-1.180176,1.567993 -0.439209,3.841919 1.443848,4.395996c25.633057,7.533936 54.36792,-1.045044 71.384033,-23.651978c21.926025,-29.13501 16.084961,-70.529053 -13.049072,-92.457031z" fill="#00A0FF"/>
    <g id="svg_7">
     <path id="svg_8" d="m2691.563232,1149.730347l-0.000977,-1.566895c-0.000977,-1.133057 -0.920166,-2.052002 -2.052979,-2.052002l-51.424072,0c-1.134033,0 -2.052979,0.918945 -2.052979,2.052979l0,3.136963c0,1.134033 0.918945,2.052979 2.052979,2.052979l43.628906,0c1.255127,0 2.221191,1.106934 2.03418,2.348022c-1.224121,8.112915 -5.061035,23.285034 -17.051025,37.854004c-0.847168,1.028931 -2.418945,1.010986 -3.240967,-0.039063c-10.031982,-12.828003 -13.119141,-25.97998 -13.962158,-30.825928c-0.183838,-1.061035 -1.166016,-1.791992 -2.236816,-1.678101l-1.643066,0.174072l-1.448975,0.151001c-1.187988,0.124023 -2.026123,1.228027 -1.808105,2.402954c1.028076,5.558105 4.772949,20.841064 16.549072,35.388062c0.682861,0.843018 0.625,2.07605 -0.175049,2.809937c-14.335938,13.149048 -27.229004,16.031006 -31.841064,16.656982c-1.026855,0.140137 -1.793945,1.009033 -1.789063,2.046021l0.015137,3.169067c0.005859,1.219971 1.064941,2.17395 2.275879,2.031982c5.484131,-0.64502 20.116211,-3.743042 36.28418,-18.613037c0.798828,-0.734009 2.013916,-0.734009 2.810059,0.003052c7.812988,7.234985 17.798828,14.210938 31.265869,18.494995c1.091064,0.346924 2.259033,-0.286987 2.582031,-1.38501l0.886963,-3.00708c0.318115,-1.077881 -0.296875,-2.197998 -1.366943,-2.53894c-12.251953,-3.907959 -21.284912,-10.199951 -28.378174,-16.651001c-0.817871,-0.744019 -0.858887,-2.005981 -0.140869,-2.845947c19.983887,-23.395996 20.22998,-48.432007 20.228027,-49.570068z" fill="#00A0FF"/>
     <path id="svg_9" d="m2727.260254,1142.828369l-3.136963,0c-1.134033,0 -2.052979,0.919067 -2.052979,2.053101l0,10.998901c0,1.134033 -0.919189,2.053101 -2.053223,2.053101l-7.378906,0c-1.134033,0 -2.052979,0.918945 -2.052979,2.052979l0,3.136963c0,1.134033 0.918945,2.052979 2.052979,2.052979l7.378906,0c1.134033,0 2.053223,0.918945 2.053223,2.052979l0,15.932983c0,1.134033 -0.919189,2.053101 -2.053223,2.053101l-7.378906,0c-1.134033,0 -2.052979,0.918945 -2.052979,2.052979l0,3.136963c0,1.134033 0.918945,2.052979 2.052979,2.052979l7.378906,0c1.134033,0 2.053223,0.919067 2.053223,2.052979l0,15.065063c0,3.27002 -1.307129,8.605957 -9.648193,9.309937c-1.077881,0.091064 -1.920898,0.965088 -1.920898,2.047119l0,3.125c0,1.195923 1.016846,2.156982 2.208984,2.054932c8.098877,-0.692993 16.603027,-5.291992 16.603027,-16.536987l0,-15.065063c0,-1.133911 0.918945,-2.052979 2.052979,-2.052979l6.556885,0c1.134033,0 2.052979,-0.918945 2.052979,-2.052979l0,-3.136963c0,-1.134033 -0.918945,-2.052979 -2.052979,-2.052979l-6.556885,0c-1.134033,0 -2.052979,-0.919067 -2.052979,-2.053101l0,-15.932983c0,-1.134033 0.918945,-2.052979 2.052979,-2.052979l6.556885,0c1.134033,0 2.052979,-0.918945 2.052979,-2.052979l0,-3.136963c0,-1.134033 -0.918945,-2.052979 -2.052979,-2.052979l-6.556885,0c-1.134033,0 -2.052979,-0.919067 -2.052979,-2.053101l0,-10.998901c0,-1.134033 -0.918945,-2.053101 -2.052979,-2.053101z" fill="#00A0FF"/>
     <path id="svg_10" d="m2743.598145,1223.56543c0,1.133911 0.918945,2.052979 2.052979,2.052979l23.138184,0c10.239014,0 18.568848,-7.940063 18.568848,-17.700073l0,-48.629883c0,-1.134033 -0.918945,-2.052979 -2.052979,-2.052979l-39.654053,0c-1.134033,0 -2.052979,0.918945 -2.052979,2.052979l0,64.276978zm25.190918,-5.190063l-15.894775,0c-1.134033,0 -2.052979,-0.918945 -2.052979,-2.052979l0,-21.810059c0,-1.133911 0.918945,-2.052979 2.052979,-2.052979l25.166992,0c1.134033,0 2.052979,0.919067 2.052979,2.052979l0,13.406006c0.000977,5.766113 -5.080078,10.457031 -11.325195,10.457031zm11.326172,-51.843018l0,16.631104c0,1.133911 -0.918945,2.052979 -2.052979,2.052979l-25.166992,0c-1.134033,0 -2.052979,-0.919067 -2.052979,-2.052979l0,-16.631104c0,-1.134033 0.918945,-2.052979 2.052979,-2.052979l25.166992,0c1.134033,0 2.052979,0.918945 2.052979,2.052979z" fill="#00A0FF"/>
     <path id="svg_11" d="m2775.121094,1142.774414l-20.439941,0c-1.134033,0 -2.052979,0.918945 -2.052979,2.052979l0,3.136963c0,1.134033 0.918945,2.052979 2.052979,2.052979l20.439941,0c1.134033,0 2.053223,-0.918945 2.053223,-2.052979l0,-3.136963c0,-1.134033 -0.919189,-2.052979 -2.053223,-2.052979z" fill="#00A0FF"/>
     <path id="svg_12" d="m2853.253174,1145.960327l-42.572998,0c-1.134033,0 -2.052979,0.919067 -2.052979,2.053101l0,3.136963c0,1.134033 0.918945,2.052979 2.052979,2.052979l42.572998,0c1.134033,0 2.052979,-0.918945 2.052979,-2.052979l0,-3.136963c0,-1.134033 -0.918945,-2.053101 -2.052979,-2.053101z" fill="#00A0FF"/>
     <path id="svg_13" d="m2835.060059,1182.273315l29.657227,0c1.133789,0 2.052979,-0.918945 2.052979,-2.052979l0,-3.136963c0,-1.134033 -0.919189,-2.052979 -2.052979,-2.052979l-65.51001,0c-1.134033,0 -2.052979,0.918945 -2.052979,2.052979l0,3.136963c0,1.134033 0.918945,2.052979 2.052979,2.052979l20.273926,0c1.637939,0 2.616943,1.824097 1.710938,3.189087l-13.491943,24.343018c-0.363037,0.544922 -0.63208,1.079956 -0.821045,1.632935c-1.128906,3.299072 -0.601074,6.838013 1.450928,9.709961c2.150146,3.01001 5.706055,4.80603 9.509033,4.80603l36.976074,0c1.661865,0 3.180908,-0.828979 4.061035,-2.217896c0.863037,-1.359131 0.968994,-3.039063 0.282959,-4.495117l-8.585938,-16.642944c-0.52002,-1.007935 -1.759033,-1.402954 -2.766113,-0.882935l-2.788086,1.438965c-1.007813,0.52002 -1.402832,1.757935 -0.882813,2.765991l5.054932,9.796021c0.705078,1.366943 -0.286865,2.994873 -1.824951,2.994873l-29.528076,0c-1.491943,0 -2.809814,-0.646973 -3.615967,-1.774902c-0.366943,-0.511963 -0.898926,-1.530029 -0.588867,-2.798096c0.051758,-0.211914 0.156738,-0.412964 0.277832,-0.595947l16.396973,-28.719971c1.058105,-1.592041 2.841064,-2.549072 4.751953,-2.549072z" fill="#00A0FF"/>
    </g>
   </g>
  </g>
 </g>
</svg>